# xmcd
#
# Track frame offsets:
#	151
#	115380
#	243019
#	296626
#
# Disc length: 4293 seconds
#
# Revision: 1
# Processed by: cddbd v1.5.2PL0 Copyright (c) Steve Scherf et al.
# Submitted via: audiograbber 1.83.01
#
DISCID=3210c304
DTITLE=John R - The Way It Was
DYEAR=1900
DGENRE=
TTITLE0=Show 1
TTITLE1=Show 2
TTITLE2=Interview
TTITLE3=History And Farewell
EXTD=
EXTT0=
EXTT1=
EXTT2=
EXTT3=
PLAYORDER=
